<?xml version="1.0" encoding="UTF-8" standalone="no"?>
<!DOCTYPE svg PUBLIC "-//W3C//DTD SVG 1.1//EN" "http://www.w3.org/Graphics/SVG/1.1/DTD/svg11.dtd">
<svg width="100%" height="100%" viewBox="0 0 30 30" version="1.1" xmlns="http://www.w3.org/2000/svg" xmlns:xlink="http://www.w3.org/1999/xlink" xml:space="preserve" xmlns:serif="http://www.serif.com/" style="fill-rule:evenodd;clip-rule:evenodd;stroke-linejoin:round;stroke-miterlimit:2;">
    <g transform="matrix(1,0,0,1,-440,-100)">
        <circle cx="455" cy="115" r="15" style="fill:white;"/>
        <path d="M455,100C463.279,100 470,106.721 470,115C470,123.279 463.279,130 455,130C446.721,130 440,123.279 440,115C440,106.721 446.721,100 455,100ZM455,106C450.033,106 446,110.033 446,115C446,119.967 450.033,124 455,124C459.967,124 464,119.967 464,115C464,110.033 459.967,106 455,106Z"/>
    </g>
</svg>
