<?xml version="1.0" encoding="UTF-8" standalone="no"?>
<!DOCTYPE svg PUBLIC "-//W3C//DTD SVG 1.1//EN" "http://www.w3.org/Graphics/SVG/1.1/DTD/svg11.dtd">
<svg width="100%" height="100%" viewBox="0 0 76 76" version="1.1" xmlns="http://www.w3.org/2000/svg" xmlns:xlink="http://www.w3.org/1999/xlink" xml:space="preserve" xmlns:serif="http://www.serif.com/" style="fill-rule:evenodd;clip-rule:evenodd;stroke-linejoin:round;stroke-miterlimit:2;">
    <g transform="matrix(1.00001,0,0,1.00008,4.54751e-13,0)">
        <rect id="Artboard1" x="-0" y="0" width="75" height="75" style="fill:none;"/>
        <clipPath id="_clip1">
            <rect id="Artboard11" serif:id="Artboard1" x="-0" y="0" width="75" height="75"/>
        </clipPath>
        <g clip-path="url(#_clip1)">
            <g transform="matrix(1.90144,-1.89862,1.89876,1.9013,-7996.24,-2292.98)">
                <clipPath id="_clip2">
                    <path d="M1537.85,2731.18L1497.36,2690.75L1456.93,2731.23L1497.42,2771.66L1537.85,2731.18Z"/>
                </clipPath>
                <g clip-path="url(#_clip2)">
                    <g transform="matrix(0.238644,5.55112e-17,-5.66944e-17,0.971727,1109.2,153.227)">
                        <rect x="1406.25" y="2606.25" width="18.75" height="91.793" style="fill:rgb(255,0,0);"/>
                        <rect x="1406.25" y="2606.25" width="18.75" height="91.793"/>
                    </g>
                    <g transform="matrix(0.238644,5.55112e-17,-5.66944e-17,0.971727,1113.67,153.227)">
                        <rect x="1406.25" y="2606.25" width="18.75" height="91.793" style="fill:rgb(255,0,0);"/>
                        <rect x="1406.25" y="2606.25" width="18.75" height="91.793" style="fill:white;"/>
                    </g>
                    <g transform="matrix(0.238644,5.55112e-17,-5.66944e-17,0.971727,1122.62,153.227)">
                        <rect x="1406.25" y="2606.25" width="18.75" height="91.793" style="fill:rgb(255,0,0);"/>
                        <rect x="1406.25" y="2606.25" width="18.75" height="91.793" style="fill:white;"/>
                    </g>
                    <g transform="matrix(0.238644,5.55112e-17,-5.66944e-17,0.971727,1118.15,153.227)">
                        <rect x="1406.25" y="2606.25" width="18.75" height="91.793" style="fill:rgb(255,0,0);"/>
                        <rect x="1406.25" y="2606.25" width="18.75" height="91.793" style="fill:rgb(255,0,0);"/>
                    </g>
                    <g transform="matrix(0.238644,5.55112e-17,-5.66944e-17,0.971727,1127.1,153.227)">
                        <rect x="1406.25" y="2606.25" width="18.75" height="91.793" style="fill:rgb(255,0,0);"/>
                    </g>
                    <g transform="matrix(0.238644,5.55112e-17,-5.66944e-17,0.971727,1131.57,153.227)">
                        <rect x="1406.25" y="2606.25" width="18.75" height="91.793" style="fill:rgb(255,0,0);"/>
                        <rect x="1406.25" y="2606.25" width="18.75" height="91.793" style="fill:white;"/>
                    </g>
                    <g transform="matrix(0.238644,5.55112e-17,-5.66944e-17,0.971727,1140.52,153.227)">
                        <rect x="1406.25" y="2606.25" width="18.75" height="91.793" style="fill:rgb(255,0,0);"/>
                        <rect x="1406.25" y="2606.25" width="18.75" height="91.793" style="fill:white;"/>
                    </g>
                    <g transform="matrix(0.238644,5.55112e-17,-5.66944e-17,0.971727,1136.05,153.227)">
                        <rect x="1406.25" y="2606.25" width="18.75" height="91.793" style="fill:rgb(255,0,0);"/>
                        <rect x="1406.25" y="2606.25" width="18.75" height="91.793" style="fill:rgb(255,0,0);"/>
                    </g>
                    <g transform="matrix(0.238644,5.55112e-17,-5.66944e-17,0.971727,1145,153.227)">
                        <rect x="1406.25" y="2606.25" width="18.75" height="91.793" style="fill:rgb(255,0,0);"/>
                    </g>
                    <g transform="matrix(0.238644,5.55112e-17,-5.66944e-17,0.971727,1149.47,153.227)">
                        <rect x="1406.25" y="2606.25" width="18.75" height="91.793" style="fill:rgb(255,0,0);"/>
                        <rect x="1406.25" y="2606.25" width="18.75" height="91.793" style="fill:white;"/>
                    </g>
                    <g transform="matrix(0.238644,5.55112e-17,-5.66944e-17,0.971727,1158.42,153.227)">
                        <rect x="1406.25" y="2606.25" width="18.75" height="91.793" style="fill:rgb(255,0,0);"/>
                        <rect x="1406.25" y="2606.25" width="18.75" height="91.793" style="fill:white;"/>
                    </g>
                    <g transform="matrix(0.238644,5.55112e-17,-5.66944e-17,0.971727,1153.94,153.227)">
                        <rect x="1406.25" y="2606.25" width="18.75" height="91.793" style="fill:rgb(255,0,0);"/>
                        <rect x="1406.25" y="2606.25" width="18.75" height="91.793" style="fill:rgb(255,0,0);"/>
                    </g>
                    <g transform="matrix(0.238644,5.55112e-17,-5.66944e-17,0.971727,1145,153.227)">
                        <rect x="1406.25" y="2606.25" width="18.75" height="91.793" style="fill:rgb(255,0,0);"/>
                    </g>
                    <g transform="matrix(0.238644,5.55112e-17,-5.66944e-17,0.971727,1149.47,153.227)">
                        <rect x="1406.25" y="2606.25" width="18.75" height="91.793" style="fill:rgb(255,0,0);"/>
                        <rect x="1406.25" y="2606.25" width="18.75" height="91.793" style="fill:white;"/>
                    </g>
                    <g transform="matrix(0.238644,5.55112e-17,-5.66944e-17,0.971727,1158.42,153.227)">
                        <rect x="1406.25" y="2606.25" width="18.75" height="91.793" style="fill:rgb(255,0,0);"/>
                        <rect x="1406.25" y="2606.25" width="18.75" height="91.793" style="fill:white;"/>
                    </g>
                    <g transform="matrix(0.238644,5.55112e-17,-5.66944e-17,0.971727,1153.94,153.227)">
                        <rect x="1406.25" y="2606.25" width="18.75" height="91.793" style="fill:rgb(255,0,0);"/>
                        <rect x="1406.25" y="2606.25" width="18.75" height="91.793" style="fill:rgb(255,0,0);"/>
                    </g>
                    <g transform="matrix(0.238644,5.55112e-17,-5.66944e-17,0.971727,1162.89,153.227)">
                        <rect x="1406.25" y="2606.25" width="18.75" height="91.793" style="fill:rgb(255,0,0);"/>
                    </g>
                    <g transform="matrix(0.238644,5.55112e-17,-5.66944e-17,0.971727,1167.37,153.227)">
                        <rect x="1406.25" y="2606.25" width="18.75" height="91.793" style="fill:rgb(255,0,0);"/>
                        <rect x="1406.25" y="2606.25" width="18.75" height="91.793" style="fill:white;"/>
                    </g>
                    <g transform="matrix(0.238644,5.55112e-17,-5.66944e-17,0.971727,1176.32,153.227)">
                        <rect x="1406.25" y="2606.25" width="18.75" height="91.793" style="fill:rgb(255,0,0);"/>
                        <rect x="1406.25" y="2606.25" width="18.75" height="91.793" style="fill:white;"/>
                    </g>
                    <g transform="matrix(0.238644,5.55112e-17,-5.66944e-17,0.971727,1171.84,153.227)">
                        <rect x="1406.25" y="2606.25" width="18.75" height="91.793" style="fill:rgb(255,0,0);"/>
                        <rect x="1406.25" y="2606.25" width="18.75" height="91.793" style="fill:rgb(255,0,0);"/>
                    </g>
                    <g transform="matrix(0.238644,5.55112e-17,-5.66944e-17,0.971727,1180.79,153.227)">
                        <rect x="1406.25" y="2606.25" width="18.75" height="91.793" style="fill:rgb(255,0,0);"/>
                    </g>
                    <g transform="matrix(0.238644,5.55112e-17,-5.66944e-17,0.971727,1185.27,153.227)">
                        <rect x="1406.25" y="2606.25" width="18.75" height="91.793" style="fill:rgb(255,0,0);"/>
                        <rect x="1406.25" y="2606.25" width="18.75" height="91.793" style="fill:white;"/>
                    </g>
                    <g transform="matrix(0.238644,5.55112e-17,-5.66944e-17,0.971727,1194.22,153.227)">
                        <rect x="1406.25" y="2606.25" width="18.75" height="91.793" style="fill:rgb(255,0,0);"/>
                        <rect x="1406.25" y="2606.25" width="18.75" height="91.793" style="fill:white;"/>
                    </g>
                    <g transform="matrix(0.238644,5.55112e-17,-5.66944e-17,0.971727,1189.74,153.227)">
                        <rect x="1406.25" y="2606.25" width="18.75" height="91.793" style="fill:rgb(255,0,0);"/>
                        <rect x="1406.25" y="2606.25" width="18.75" height="91.793" style="fill:rgb(255,0,0);"/>
                    </g>
                    <g transform="matrix(0.238644,5.55112e-17,-5.66944e-17,0.971727,1198.69,153.227)">
                        <rect x="1406.25" y="2606.25" width="18.75" height="91.793" style="fill:rgb(255,0,0);"/>
                    </g>
                    <g transform="matrix(0.238644,5.55112e-17,-5.66944e-17,0.971727,1203.17,153.227)">
                        <rect x="1406.25" y="2606.25" width="18.75" height="91.793" style="fill:rgb(255,0,0);"/>
                        <rect x="1406.25" y="2606.25" width="18.75" height="91.793" style="fill:white;"/>
                    </g>
                    <g transform="matrix(0.238644,5.55112e-17,-5.66944e-17,0.971727,1212.11,153.227)">
                        <rect x="1406.25" y="2606.25" width="18.75" height="91.793" style="fill:rgb(255,0,0);"/>
                        <rect x="1406.25" y="2606.25" width="18.75" height="91.793" style="fill:white;"/>
                    </g>
                    <g transform="matrix(0.238644,5.55112e-17,-5.66944e-17,0.971727,1207.64,153.227)">
                        <rect x="1406.25" y="2606.25" width="18.75" height="91.793" style="fill:rgb(255,0,0);"/>
                        <rect x="1406.25" y="2606.25" width="18.75" height="91.793" style="fill:rgb(255,0,0);"/>
                    </g>
                    <g transform="matrix(0.238644,5.55112e-17,-5.66944e-17,0.971727,1198.69,153.227)">
                        <rect x="1406.25" y="2606.25" width="18.75" height="91.793" style="fill:rgb(255,0,0);"/>
                    </g>
                    <g transform="matrix(0.238644,5.55112e-17,-5.66944e-17,0.971727,1203.17,153.227)">
                        <rect x="1406.25" y="2606.25" width="18.75" height="91.793" style="fill:rgb(255,0,0);"/>
                        <rect x="1406.25" y="2606.25" width="18.75" height="91.793" style="fill:white;"/>
                    </g>
                    <g transform="matrix(0.238644,5.55112e-17,-5.66944e-17,0.971727,1212.11,153.227)">
                        <rect x="1406.25" y="2606.25" width="18.75" height="91.793" style="fill:rgb(255,0,0);"/>
                        <rect x="1406.25" y="2606.25" width="18.75" height="91.793" style="fill:white;"/>
                    </g>
                    <g transform="matrix(0.238644,5.55112e-17,-5.66944e-17,0.971727,1207.64,153.227)">
                        <rect x="1406.25" y="2606.25" width="18.75" height="91.793" style="fill:rgb(255,0,0);"/>
                        <rect x="1406.25" y="2606.25" width="18.75" height="91.793" style="fill:rgb(255,0,0);"/>
                    </g>
                </g>
            </g>
            <g transform="matrix(0.999991,0,0,0.999916,-1162.49,-2749.85)">
                <path d="M1237.5,2750.08L1237.5,2825.08L1162.5,2825.08L1162.5,2750.08L1237.5,2750.08ZM1229.5,2758.08L1170.5,2758.08L1170.5,2817.08L1229.5,2817.08L1229.5,2758.08Z"/>
            </g>
        </g>
    </g>
</svg>
